<svg xmlns="http://www.w3.org/2000/svg" viewBox="0 0 800 450">
  <defs>
    <linearGradient id="bgM" x1="0" y1="0" x2="1" y2="1">
      <stop offset="0%" stop-color="#1A1A1A"/><stop offset="100%" stop-color="#0F0F0F"/>
    </linearGradient>
  </defs>
  <rect width="800" height="450" fill="url(#bgM)"/>
  <g stroke="#3B82F6" stroke-width="1" opacity="0.25">
    <line x1="0" y1="90" x2="800" y2="90"/><line x1="0" y1="180" x2="800" y2="180"/>
    <line x1="0" y1="270" x2="800" y2="270"/><line x1="0" y1="360" x2="800" y2="360"/>
    <line x1="130" y1="0" x2="130" y2="450"/><line x1="270" y1="0" x2="270" y2="450"/>
    <line x1="410" y1="0" x2="410" y2="450"/><line x1="550" y1="0" x2="550" y2="450"/>
    <line x1="690" y1="0" x2="690" y2="450"/>
  </g>
  <path d="M60 380 L200 220 L340 260 L480 120 L620 160 L760 60" stroke="#2DD4A7" stroke-width="2.5" fill="none" opacity="0.6"/>
  <g fill="#3B82F6">
    <circle cx="200" cy="220" r="7"/><circle cx="480" cy="120" r="7"/><circle cx="620" cy="160" r="7"/>
  </g>
  <g fill="#2DD4A7">
    <circle cx="340" cy="260" r="9"/>
  </g>
  <text x="40" y="55" font-family="'JetBrains Mono', monospace" font-size="20" fill="#3B82F6" opacity="0.85">map_dashboard.vue · PostGIS</text>
</svg>
